<?xml version="1.0" standalone="no"?>
<!DOCTYPE svg PUBLIC "-//W3C//DTD SVG 20010904//EN"
 "http://www.w3.org/TR/2001/REC-SVG-20010904/DTD/svg10.dtd">
<svg version="1.0" xmlns="http://www.w3.org/2000/svg"
 width="181.000000pt" height="114.000000pt" viewBox="0 0 181.000000 114.000000"
 preserveAspectRatio="xMidYMid meet">

<g transform="translate(0.000000,114.000000) scale(0.100000,-0.100000)"
fill="#000000" stroke="none">
<path d="M1300 1034 c-110 -29 -244 -109 -290 -174 -13 -18 -22 -49 -24 -82
-3 -40 -21 -90 -74 -203 -109 -235 -137 -335 -92 -335 15 0 23 14 41 73 11 39
63 160 114 267 51 107 96 206 100 220 34 114 278 211 454 180 171 -30 241
-130 175 -250 -54 -100 -155 -185 -374 -318 -108 -65 -182 -98 -410 -186 -127
-48 -162 -70 -158 -99 3 -19 9 -22 48 -21 65 2 185 45 345 124 448 219 701
467 646 633 -14 41 -81 106 -140 136 -94 49 -252 64 -361 35z"/>
<path d="M489 987 c-170 -47 -387 -294 -470 -536 -27 -77 -26 -218 1 -270 54
-107 158 -109 304 -4 172 123 486 418 486 455 0 20 -4 21 -65 15 -41 -4 -141
-32 -265 -74 -179 -60 -200 -69 -200 -89 0 -47 20 -47 161 1 74 25 142 45 152
45 62 0 -49 -130 -197 -229 -160 -108 -286 -147 -334 -101 -38 36 -27 120 37
270 49 113 124 238 186 307 83 94 230 174 290 159 22 -6 25 -12 25 -56 0 -57
18 -67 45 -26 14 21 14 28 2 58 -18 41 -54 75 -87 82 -14 3 -46 -1 -71 -7z"/>
</g>
</svg>
